<?xml version="1.0" encoding="UTF-8"?>
<svg id="Layer_1" data-name="Layer 1" xmlns="http://www.w3.org/2000/svg" viewBox="0 0 150 150">
  <defs>
    <style>
      .cls-1 {
        fill: #ed1c24;
        stroke-width: 5px;
      }

      .cls-1, .cls-2 {
        stroke: #231f20;
        stroke-miterlimit: 10;
      }

      .cls-2 {
        fill: #fff;
        stroke-width: 14px;
      }

      #star-2 { cursor: pointer; }
      #star-2:hover { fill: #42f5f5 !important; } 
      #matrix-2:hover { transform: scale(1.1); }

    </style>
  </defs>
  <g id="matrix-2">
    <rect id="star-background-2" class="cls-2" x="31.34" y="31.34" width="87.33" height="87.33"/>
    <path id="star-2" class="cls-1" d="M78.59,94.08c0-12.04,0-37.9,0-37.9,.74,2.53,3.79,3.52,5.88,1.91h0c2.96-2.28,7.07,.7,5.81,4.22h0c-.88,2.48,1,5.07,3.63,5h0c3.73-.1,5.3,4.72,2.22,6.83h0c-2.17,1.49-2.17,4.69,0,6.18h0c3.08,2.11,1.51,6.94-2.22,6.83h0c-2.63-.07-4.52,2.52-3.63,5h0c1.25,3.52-2.85,6.5-5.81,4.22h0c-2.09-1.61-5.13-.62-5.88,1.91v7.41c-.65,4.09-6.54,4.09-7.19,0v-7.41c-.74-2.53-3.79-3.52-5.88-1.91h0c-2.96,2.28-7.07-.7-5.81-4.22h0c.88-2.48-1-5.07-3.63-5h0c-3.73,.1-5.3-4.72-2.22-6.83h0c2.17-1.49,2.17-4.69,0-6.18h0c-3.08-2.11-1.51-6.94,2.22-6.83h0c2.63,.07,4.52-2.52,3.63-5h0c-1.25-3.52,2.85-6.5,5.81-4.22h0c2.09,1.61,5.13,.62,5.88-1.91,0,0,0,25.86,0,37.9,0,1.95,1.59,3.37,3.55,3.34,.03,0,.06,0,.09,0,1.95,.02,3.55-1.39,3.55-3.34Z"/>
  </g>
</svg>