<?xml version="1.0" encoding="UTF-8"?>
<svg id="Layer_1" data-name="Layer 1" xmlns="http://www.w3.org/2000/svg" viewBox="0 0 150 150">
  <defs>
    <style>
      .cls-1 {
        fill: #fff;
        stroke: #ed1c24;
      }

      .cls-1, .cls-2 {
        stroke-miterlimit: 10;
        stroke-width: 5px;
      }

      .cls-2 {
        fill: #231f20;
        stroke: #fff;
      }
    </style>
  </defs>
  <g id="matrix-1">
    <circle id="star-background-1" class="cls-2" cx="75" cy="75" r="47.83"/>
    <path id="star-1" class="cls-1" d="M78.95,94.86c0-13.22,0-41.62,0-41.62,.82,2.77,4.16,3.86,6.46,2.1h0c3.25-2.5,7.76,.77,6.38,4.64h0c-.97,2.72,1.1,5.57,3.99,5.49h0c4.1-.11,5.82,5.19,2.44,7.51h0c-2.38,1.63-2.38,5.15,0,6.79h0c3.38,2.32,1.66,7.62-2.44,7.51h0c-2.89-.08-4.96,2.77-3.99,5.49h0c1.38,3.86-3.13,7.14-6.38,4.64h0c-2.29-1.76-5.64-.68-6.46,2.1v8.13c-.71,4.49-7.18,4.49-7.89,0v-8.13c-.82-2.77-4.16-3.86-6.46-2.1h0c-3.25,2.5-7.76-.77-6.38-4.64h0c.97-2.72-1.1-5.57-3.99-5.49h0c-4.1,.11-5.82-5.19-2.44-7.51h0c2.38-1.63,2.38-5.15,0-6.79h0c-3.38-2.32-1.66-7.62,2.44-7.51h0c2.89,.08,4.96-2.77,3.99-5.49h0c-1.38-3.86,3.13-7.14,6.38-4.64h0c2.29,1.76,5.64,.68,6.46-2.1,0,0,0,28.4,0,41.62,0,2.15,1.75,3.7,3.9,3.67,.03,0,.07,0,.1,0,2.15,.03,3.9-1.52,3.9-3.67Z"/>
  </g>
</svg>